<mxfile host="app.diagrams.net" modified="2023-09-15T14:29:42.762Z" agent="Mozilla/5.0 (Macintosh; Intel Mac OS X 10_15_7) AppleWebKit/605.1.15 (KHTML, like Gecko) Version/15.6.1 Safari/605.1.15" etag="891VWIPJCHzVqCqGlsSQ" version="21.7.5" type="device">
  <diagram name="Page-1" id="Q0tNZgN7exvVEr0pvUXQ">
    <mxGraphModel dx="1327" dy="886" grid="1" gridSize="10" guides="1" tooltips="1" connect="1" arrows="1" fold="1" page="1" pageScale="1" pageWidth="827" pageHeight="1169" math="0" shadow="0">
      <root>
        <mxCell id="0" />
        <mxCell id="1" parent="0" />
        <mxCell id="7ZaIqYHL2ud_zzjUojRD-1502" value="" style="group;dropTarget=0;pointerEvents=0;" vertex="1" parent="1">
          <mxGeometry x="696" y="608" width="640" height="45" as="geometry" />
        </mxCell>
        <UserObject label="%filename%" placeholders="1" id="7ZaIqYHL2ud_zzjUojRD-1503">
          <mxCell style="points=[[0.199,0.967,0],[0.809,0.967,0]];html=1;overflow=block;blockSpacing=1;whiteSpace=wrap;fontSize=19.7;fontColor=#a9afb8;fontStyle=1;align=center;spacingLeft=7;spacingRight=7;spacingTop=2;spacing=3;strokeOpacity=0;fillOpacity=0;rounded=1;absoluteArcSize=1;arcSize=12;fillColor=#ffffff;strokeWidth=1.5;lucidId=7E74PpC612dq;" vertex="1" parent="7ZaIqYHL2ud_zzjUojRD-1502">
            <mxGeometry width="640" height="31" as="geometry" />
          </mxCell>
        </UserObject>
        <UserObject label="%creatorName%  |  %date{mmmm d, yyyy}%" placeholders="1" id="7ZaIqYHL2ud_zzjUojRD-1504">
          <mxCell style="html=1;overflow=block;blockSpacing=1;whiteSpace=wrap;fontSize=11.5;fontColor=#a9afb8;align=center;spacingLeft=7;spacingRight=7;spacingTop=2;spacing=3;strokeOpacity=0;fillOpacity=0;rounded=1;absoluteArcSize=1;arcSize=12;fillColor=#ffffff;strokeWidth=1.5;lucidId=7E74zB~4Nseb;" vertex="1" parent="7ZaIqYHL2ud_zzjUojRD-1502">
            <mxGeometry y="31" width="640" height="14" as="geometry" />
          </mxCell>
        </UserObject>
        <mxCell id="7ZaIqYHL2ud_zzjUojRD-1505" value="" style="html=1;jettySize=18;whiteSpace=wrap;fontSize=13;fontFamily=Helvetica;strokeColor=#a9afb8;strokeOpacity=100;strokeWidth=1.5;rounded=0;startArrow=none;endArrow=none;exitX=0.199;exitY=0.967;exitPerimeter=0;entryX=0.809;entryY=0.967;entryPerimeter=0;lucidId=7E749cH06dJP;" edge="1" parent="7ZaIqYHL2ud_zzjUojRD-1502" source="7ZaIqYHL2ud_zzjUojRD-1503" target="7ZaIqYHL2ud_zzjUojRD-1503">
          <mxGeometry width="100" height="100" relative="1" as="geometry">
            <Array as="points">
              <mxPoint x="127" y="50" generated="1" />
              <mxPoint x="518" y="50" generated="1" />
            </Array>
          </mxGeometry>
        </mxCell>
        <mxCell id="7ZaIqYHL2ud_zzjUojRD-1538" value="" style="html=1;jettySize=18;whiteSpace=wrap;fontSize=13;strokeColor=#333333;strokeOpacity=100;dashed=1;fixDash=1;dashPattern=8 8;strokeWidth=0.8;rounded=1;arcSize=10;edgeStyle=orthogonalEdgeStyle;startArrow=none;endArrow=none;exitX=0.5;exitY=1;lucidId=sw2_XWLheOnD;exitDx=0;exitDy=0;" edge="1" parent="1" source="7ZaIqYHL2ud_zzjUojRD-1572">
          <mxGeometry width="100" height="100" relative="1" as="geometry">
            <Array as="points">
              <mxPoint x="2130" y="1716" />
            </Array>
            <mxPoint x="2129.52" y="1715" as="targetPoint" />
            <mxPoint x="2129.52" y="560" as="sourcePoint" />
          </mxGeometry>
        </mxCell>
        <mxCell id="7ZaIqYHL2ud_zzjUojRD-1539" value="" style="html=1;jettySize=18;whiteSpace=wrap;fontSize=13;strokeColor=#333333;strokeOpacity=100;dashed=1;fixDash=1;dashPattern=8 8;strokeWidth=0.8;rounded=1;arcSize=10;edgeStyle=orthogonalEdgeStyle;startArrow=none;endArrow=none;exitX=0.5;exitY=1;exitPerimeter=0;lucidId=sw2_IaxF4LJW;" edge="1" parent="1" source="7ZaIqYHL2ud_zzjUojRD-1553">
          <mxGeometry width="100" height="100" relative="1" as="geometry">
            <Array as="points">
              <mxPoint x="1530" y="1355" />
            </Array>
            <mxPoint x="1530" y="1710" as="targetPoint" />
          </mxGeometry>
        </mxCell>
        <mxCell id="7ZaIqYHL2ud_zzjUojRD-1540" value="[registry==ecr]" style="html=1;blockSpacing=1;whiteSpace=wrap;shape=mxgraph.sysml.package2;xSize=90;overflow=fill;fontSize=13;fontColor=#6f7681;align=left;spacing=0;strokeOpacity=100;fillOpacity=100;rounded=1;absoluteArcSize=1;arcSize=12;fillColor=#ffffff;strokeWidth=0.8;lucidId=sw2_ZpGVZm28;" vertex="1" parent="1">
          <mxGeometry x="795" y="945" width="1800" height="465" as="geometry" />
        </mxCell>
        <mxCell id="7ZaIqYHL2ud_zzjUojRD-1541" value="Confition" style="strokeColor=none;fillColor=none;whiteSpace=wrap;fontSize=13;fontColor=#6f7681;align=center;" vertex="1" parent="7ZaIqYHL2ud_zzjUojRD-1540">
          <mxGeometry y="465" width="1800" height="10" as="geometry" />
        </mxCell>
        <mxCell id="7ZaIqYHL2ud_zzjUojRD-1542" value=":SSP" style="html=1;overflow=block;blockSpacing=1;whiteSpace=wrap;fontSize=13;fontColor=#333333;fontStyle=4;spacing=3.8;strokeOpacity=0;fillOpacity=100;rounded=1;absoluteArcSize=1;arcSize=7.5;fillColor=#a5ceff;strokeWidth=0.8;lucidId=sw2_IlW4qdFf;" vertex="1" parent="1">
          <mxGeometry x="660" y="722" width="120" height="53" as="geometry" />
        </mxCell>
        <mxCell id="7ZaIqYHL2ud_zzjUojRD-1543" value=":AwsEcrAdapter" style="html=1;overflow=block;blockSpacing=1;whiteSpace=wrap;fontSize=13;fontColor=#333333;fontStyle=4;spacing=3.8;strokeOpacity=0;fillOpacity=100;rounded=1;absoluteArcSize=1;arcSize=7.5;fillColor=#a5ceff;strokeWidth=0.8;lucidId=sw2_cXAwcxfD;" vertex="1" parent="1">
          <mxGeometry x="1055" y="722" width="120" height="53" as="geometry" />
        </mxCell>
        <mxCell id="7ZaIqYHL2ud_zzjUojRD-1544" value=":Vault" style="html=1;overflow=block;blockSpacing=1;whiteSpace=wrap;fontSize=13;fontColor=#333333;fontStyle=4;spacing=3.8;strokeOpacity=0;fillOpacity=100;rounded=1;absoluteArcSize=1;arcSize=7.5;fillColor=#a5ceff;strokeWidth=0.8;lucidId=sw2_EZtChitr;" vertex="1" parent="1">
          <mxGeometry x="1868" y="720" width="120" height="53" as="geometry" />
        </mxCell>
        <mxCell id="7ZaIqYHL2ud_zzjUojRD-1545" value=":Nats" style="html=1;overflow=block;blockSpacing=1;whiteSpace=wrap;fontSize=13;fontColor=#333333;fontStyle=4;spacing=3.8;strokeOpacity=0;fillOpacity=100;rounded=1;absoluteArcSize=1;arcSize=7.5;fillColor=#a5ceff;strokeWidth=0.8;lucidId=sw2_y71zjC5J;" vertex="1" parent="1">
          <mxGeometry x="857" y="722" width="120" height="53" as="geometry" />
        </mxCell>
        <mxCell id="7ZaIqYHL2ud_zzjUojRD-1546" value="" style="html=1;jettySize=18;whiteSpace=wrap;fontSize=13;strokeColor=#333333;strokeOpacity=100;dashed=1;fixDash=1;dashPattern=8 8;strokeWidth=0.8;rounded=1;arcSize=10;edgeStyle=orthogonalEdgeStyle;startArrow=none;endArrow=none;exitX=0.5;exitY=1;exitPerimeter=0;lucidId=sw2_NQkr4w-o;" edge="1" parent="1" source="7ZaIqYHL2ud_zzjUojRD-1542">
          <mxGeometry width="100" height="100" relative="1" as="geometry">
            <Array as="points" />
            <mxPoint x="720" y="1697" as="targetPoint" />
          </mxGeometry>
        </mxCell>
        <mxCell id="7ZaIqYHL2ud_zzjUojRD-1547" value="" style="html=1;jettySize=18;whiteSpace=wrap;fontSize=13;strokeColor=#333333;strokeOpacity=100;dashed=1;fixDash=1;dashPattern=8 8;strokeWidth=0.8;rounded=1;arcSize=10;edgeStyle=orthogonalEdgeStyle;startArrow=none;endArrow=none;exitX=0.498;exitY=1;exitPerimeter=0;lucidId=sw2_ruCKwyGw;" edge="1" parent="1" source="7ZaIqYHL2ud_zzjUojRD-1545">
          <mxGeometry width="100" height="100" relative="1" as="geometry">
            <Array as="points" />
            <mxPoint x="917" y="1697" as="targetPoint" />
          </mxGeometry>
        </mxCell>
        <mxCell id="7ZaIqYHL2ud_zzjUojRD-1548" value="" style="html=1;jettySize=18;whiteSpace=wrap;fontSize=13;strokeColor=#333333;strokeOpacity=100;dashed=1;fixDash=1;dashPattern=8 8;strokeWidth=0.8;rounded=1;arcSize=10;edgeStyle=orthogonalEdgeStyle;startArrow=none;endArrow=none;exitX=0.5;exitY=1;exitPerimeter=0;lucidId=sw2_A78Pe.sr;" edge="1" parent="1" source="7ZaIqYHL2ud_zzjUojRD-1543">
          <mxGeometry width="100" height="100" relative="1" as="geometry">
            <Array as="points" />
            <mxPoint x="1115" y="1712" as="targetPoint" />
          </mxGeometry>
        </mxCell>
        <mxCell id="7ZaIqYHL2ud_zzjUojRD-1549" value="" style="html=1;overflow=block;blockSpacing=1;whiteSpace=wrap;fontSize=13;spacing=0;strokeOpacity=0;fillOpacity=100;rounded=1;absoluteArcSize=1;arcSize=7.5;fillColor=#d6d6d6;strokeWidth=0.8;lucidId=sw2_gWQePRNK;" vertex="1" parent="1">
          <mxGeometry x="1106" y="812" width="30" height="583" as="geometry" />
        </mxCell>
        <mxCell id="7ZaIqYHL2ud_zzjUojRD-1550" value="" style="html=1;jettySize=18;whiteSpace=wrap;fontSize=13;strokeColor=#333333;strokeOpacity=100;dashed=1;fixDash=1;dashPattern=8 8;strokeWidth=0.8;rounded=1;arcSize=10;edgeStyle=orthogonalEdgeStyle;startArrow=none;endArrow=none;exitX=0.5;exitY=1;exitPerimeter=0;lucidId=sw2_pHvSnlPQ;" edge="1" parent="1" source="7ZaIqYHL2ud_zzjUojRD-1544">
          <mxGeometry width="100" height="100" relative="1" as="geometry">
            <Array as="points" />
            <mxPoint x="1928" y="1710" as="targetPoint" />
          </mxGeometry>
        </mxCell>
        <mxCell id="7ZaIqYHL2ud_zzjUojRD-1551" value=":Gihub " style="html=1;overflow=block;blockSpacing=1;whiteSpace=wrap;fontSize=13;fontColor=#333333;fontStyle=4;spacing=3.8;strokeOpacity=0;fillOpacity=100;rounded=1;absoluteArcSize=1;arcSize=7.5;fillColor=#a5ceff;strokeWidth=0.8;lucidId=sw2_hFJyCZGc;" vertex="1" parent="1">
          <mxGeometry x="1669" y="722" width="120" height="53" as="geometry" />
        </mxCell>
        <mxCell id="7ZaIqYHL2ud_zzjUojRD-1552" value="" style="html=1;jettySize=18;whiteSpace=wrap;fontSize=13;strokeColor=#333333;strokeOpacity=100;dashed=1;fixDash=1;dashPattern=8 8;strokeWidth=0.8;rounded=1;arcSize=10;edgeStyle=orthogonalEdgeStyle;startArrow=none;endArrow=none;exitX=0.5;exitY=1;exitPerimeter=0;lucidId=sw2_9OYUVX8a;" edge="1" parent="1" source="7ZaIqYHL2ud_zzjUojRD-1551">
          <mxGeometry width="100" height="100" relative="1" as="geometry">
            <Array as="points" />
            <mxPoint x="1729" y="1712" as="targetPoint" />
          </mxGeometry>
        </mxCell>
        <mxCell id="7ZaIqYHL2ud_zzjUojRD-1553" value=":Inventory&#xa;Provsioner" style="html=1;overflow=block;blockSpacing=1;whiteSpace=wrap;fontSize=13;fontColor=#333333;fontStyle=4;spacing=3.8;strokeOpacity=0;fillOpacity=100;rounded=1;absoluteArcSize=1;arcSize=7.5;fillColor=#a5ceff;strokeWidth=0.8;lucidId=sw2_7uJkAyJy;" vertex="1" parent="1">
          <mxGeometry x="1470" y="720" width="120" height="53" as="geometry" />
        </mxCell>
        <mxCell id="7ZaIqYHL2ud_zzjUojRD-1554" value="" style="html=1;jettySize=18;whiteSpace=wrap;fontSize=13;strokeColor=#333333;strokeOpacity=100;strokeWidth=0.8;rounded=1;arcSize=24;edgeStyle=orthogonalEdgeStyle;startArrow=none;endArrow=block;endFill=1;lucidId=sw2_QBbCdavi;" edge="1" parent="1">
          <mxGeometry width="100" height="100" relative="1" as="geometry">
            <Array as="points" />
            <mxPoint x="720" y="827" as="sourcePoint" />
            <mxPoint x="917" y="827" as="targetPoint" />
          </mxGeometry>
        </mxCell>
        <mxCell id="7ZaIqYHL2ud_zzjUojRD-1555" value="Sent event" style="text;html=1;resizable=0;labelBackgroundColor=default;align=center;verticalAlign=middle;fontColor=#333333;fontSize=13;" vertex="1" parent="7ZaIqYHL2ud_zzjUojRD-1554">
          <mxGeometry relative="1" as="geometry">
            <mxPoint as="offset" />
          </mxGeometry>
        </mxCell>
        <mxCell id="7ZaIqYHL2ud_zzjUojRD-1556" value="" style="html=1;jettySize=18;whiteSpace=wrap;fontSize=13;strokeColor=#333333;strokeOpacity=100;strokeWidth=0.8;rounded=1;arcSize=24;edgeStyle=orthogonalEdgeStyle;startArrow=none;endArrow=block;endFill=1;exitX=0;exitY=0.061;exitPerimeter=0;lucidId=sw2_kwfabqoX;" edge="1" parent="1" source="7ZaIqYHL2ud_zzjUojRD-1549">
          <mxGeometry width="100" height="100" relative="1" as="geometry">
            <Array as="points" />
            <mxPoint x="917" y="848" as="targetPoint" />
          </mxGeometry>
        </mxCell>
        <mxCell id="7ZaIqYHL2ud_zzjUojRD-1557" value="poll event" style="text;html=1;resizable=0;labelBackgroundColor=default;align=center;verticalAlign=middle;fontColor=#333333;fontSize=13;" vertex="1" parent="7ZaIqYHL2ud_zzjUojRD-1556">
          <mxGeometry relative="1" as="geometry">
            <mxPoint as="offset" />
          </mxGeometry>
        </mxCell>
        <mxCell id="7ZaIqYHL2ud_zzjUojRD-1558" value="" style="html=1;jettySize=18;whiteSpace=wrap;fontSize=13;strokeColor=#333333;strokeOpacity=100;strokeWidth=0.8;rounded=1;arcSize=24;edgeStyle=orthogonalEdgeStyle;startArrow=none;endArrow=block;endFill=1;exitX=1;exitY=0.278;exitPerimeter=0;lucidId=sw2_QKgnw4bx;" edge="1" parent="1" source="7ZaIqYHL2ud_zzjUojRD-1549">
          <mxGeometry width="100" height="100" relative="1" as="geometry">
            <Array as="points" />
            <mxPoint x="1530" y="975" as="targetPoint" />
          </mxGeometry>
        </mxCell>
        <mxCell id="7ZaIqYHL2ud_zzjUojRD-1559" value="addContainerRegistryRepository " style="text;html=1;resizable=0;labelBackgroundColor=default;align=center;verticalAlign=middle;fontColor=default;fontSize=14;" vertex="1" parent="7ZaIqYHL2ud_zzjUojRD-1558">
          <mxGeometry relative="1" as="geometry">
            <mxPoint as="offset" />
          </mxGeometry>
        </mxCell>
        <mxCell id="7ZaIqYHL2ud_zzjUojRD-1560" value="" style="html=1;jettySize=18;whiteSpace=wrap;fontSize=13;strokeColor=#333333;strokeOpacity=100;dashed=1;fixDash=1;strokeWidth=0.8;rounded=1;arcSize=24;edgeStyle=orthogonalEdgeStyle;startArrow=block;startFill=1;endArrow=none;exitX=1;exitY=0.563;exitPerimeter=0;entryX=0;entryY=0.919;entryPerimeter=0;lucidId=sw2_~3sell7f;" edge="1" parent="1" source="7ZaIqYHL2ud_zzjUojRD-1549" target="7ZaIqYHL2ud_zzjUojRD-1564">
          <mxGeometry width="100" height="100" relative="1" as="geometry">
            <Array as="points" />
          </mxGeometry>
        </mxCell>
        <mxCell id="7ZaIqYHL2ud_zzjUojRD-1561" value="default.tfvars" style="text;html=1;resizable=0;labelBackgroundColor=default;align=center;verticalAlign=middle;fontColor=#333333;fontSize=13;" vertex="1" parent="7ZaIqYHL2ud_zzjUojRD-1560">
          <mxGeometry relative="1" as="geometry">
            <mxPoint as="offset" />
          </mxGeometry>
        </mxCell>
        <mxCell id="7ZaIqYHL2ud_zzjUojRD-1562" value="" style="html=1;jettySize=18;whiteSpace=wrap;fontSize=13;strokeColor=#333333;strokeOpacity=100;strokeWidth=0.8;rounded=1;arcSize=24;edgeStyle=orthogonalEdgeStyle;startArrow=none;endArrow=block;endFill=1;exitX=1;exitY=0.157;exitPerimeter=0;lucidId=sw2_znBp6zMu;" edge="1" parent="1" source="7ZaIqYHL2ud_zzjUojRD-1564">
          <mxGeometry width="100" height="100" relative="1" as="geometry">
            <Array as="points" />
            <mxPoint x="1729" y="1003" as="targetPoint" />
          </mxGeometry>
        </mxCell>
        <mxCell id="7ZaIqYHL2ud_zzjUojRD-1563" value="checkout default.tfvars" style="text;html=1;resizable=0;labelBackgroundColor=default;align=center;verticalAlign=middle;fontColor=#333333;fontSize=13;" vertex="1" parent="7ZaIqYHL2ud_zzjUojRD-1562">
          <mxGeometry relative="1" as="geometry">
            <mxPoint as="offset" />
          </mxGeometry>
        </mxCell>
        <mxCell id="7ZaIqYHL2ud_zzjUojRD-1564" value="" style="html=1;overflow=block;blockSpacing=1;whiteSpace=wrap;fontSize=13;spacing=0;strokeOpacity=0;fillOpacity=100;rounded=1;absoluteArcSize=1;arcSize=7.5;fillColor=#d6d6d6;strokeWidth=0.8;lucidId=sw2_KUZNjmrf;" vertex="1" parent="1">
          <mxGeometry x="1515" y="975" width="30" height="180" as="geometry" />
        </mxCell>
        <mxCell id="7ZaIqYHL2ud_zzjUojRD-1565" value="" style="html=1;jettySize=18;whiteSpace=wrap;fontSize=13;strokeColor=#333333;strokeOpacity=100;dashed=1;fixDash=1;strokeWidth=0.8;rounded=1;arcSize=24;edgeStyle=orthogonalEdgeStyle;startArrow=block;startFill=1;endArrow=none;exitX=1;exitY=0.293;exitPerimeter=0;lucidId=sw2_1EHHQOfy;" edge="1" parent="1" source="7ZaIqYHL2ud_zzjUojRD-1564">
          <mxGeometry width="100" height="100" relative="1" as="geometry">
            <Array as="points" />
            <mxPoint x="1729" y="1028" as="targetPoint" />
          </mxGeometry>
        </mxCell>
        <mxCell id="7ZaIqYHL2ud_zzjUojRD-1566" value="" style="html=1;jettySize=18;whiteSpace=wrap;fontSize=13;strokeColor=#333333;strokeOpacity=100;strokeWidth=0.8;rounded=1;arcSize=24;edgeStyle=orthogonalEdgeStyle;startArrow=none;endArrow=block;endFill=1;exitX=1;exitY=0.463;exitPerimeter=0;lucidId=sw2_2wihwZSK;" edge="1" parent="1" source="7ZaIqYHL2ud_zzjUojRD-1564">
          <mxGeometry width="100" height="100" relative="1" as="geometry">
            <Array as="points" />
            <mxPoint x="1928" y="1058" as="targetPoint" />
          </mxGeometry>
        </mxCell>
        <mxCell id="7ZaIqYHL2ud_zzjUojRD-1567" value="get git decrypt-key" style="text;html=1;resizable=0;labelBackgroundColor=default;align=center;verticalAlign=middle;fontColor=#333333;fontSize=13;" vertex="1" parent="7ZaIqYHL2ud_zzjUojRD-1566">
          <mxGeometry relative="1" as="geometry">
            <mxPoint as="offset" />
          </mxGeometry>
        </mxCell>
        <mxCell id="7ZaIqYHL2ud_zzjUojRD-1568" value="" style="html=1;jettySize=18;whiteSpace=wrap;fontSize=13;strokeColor=#333333;strokeOpacity=100;dashed=1;fixDash=1;strokeWidth=0.8;rounded=1;arcSize=24;edgeStyle=orthogonalEdgeStyle;startArrow=block;startFill=1;endArrow=none;exitX=1;exitY=0.613;exitPerimeter=0;lucidId=sw2_TCRgxsVz;" edge="1" parent="1" source="7ZaIqYHL2ud_zzjUojRD-1564">
          <mxGeometry width="100" height="100" relative="1" as="geometry">
            <Array as="points" />
            <mxPoint x="1928" y="1085" as="targetPoint" />
          </mxGeometry>
        </mxCell>
        <mxCell id="7ZaIqYHL2ud_zzjUojRD-1569" value="" style="html=1;jettySize=18;whiteSpace=wrap;fontSize=13;strokeColor=#333333;strokeOpacity=100;strokeWidth=0.8;rounded=1;arcSize=24;edgeStyle=orthogonalEdgeStyle;startArrow=none;endArrow=block;endFill=1;exitX=1;exitY=0.82;exitPerimeter=0;lucidId=sw2_m0e1GHuI;" edge="1" parent="1" source="7ZaIqYHL2ud_zzjUojRD-1564">
          <mxGeometry width="100" height="100" relative="1" as="geometry">
            <Array as="points" />
            <mxPoint x="1729" y="1123" as="targetPoint" />
          </mxGeometry>
        </mxCell>
        <mxCell id="7ZaIqYHL2ud_zzjUojRD-1570" value="update default.tfvars repository list" style="text;html=1;resizable=0;labelBackgroundColor=default;align=center;verticalAlign=middle;fontColor=#333333;fontSize=13;" vertex="1" parent="7ZaIqYHL2ud_zzjUojRD-1569">
          <mxGeometry relative="1" as="geometry">
            <mxPoint x="13" y="-14" as="offset" />
          </mxGeometry>
        </mxCell>
        <mxCell id="7ZaIqYHL2ud_zzjUojRD-1571" value="" style="html=1;jettySize=18;whiteSpace=wrap;fontSize=13;strokeColor=#333333;strokeOpacity=100;dashed=1;fixDash=1;strokeWidth=0.8;rounded=1;arcSize=24;edgeStyle=orthogonalEdgeStyle;startArrow=block;startFill=1;endArrow=none;exitX=1;exitY=0.875;exitPerimeter=0;entryX=0;entryY=0.895;entryPerimeter=0;lucidId=sw2_hP-PbVJg;" edge="1" parent="1" source="7ZaIqYHL2ud_zzjUojRD-1549" target="7ZaIqYHL2ud_zzjUojRD-1580">
          <mxGeometry width="100" height="100" relative="1" as="geometry">
            <Array as="points" />
          </mxGeometry>
        </mxCell>
        <mxCell id="7ZaIqYHL2ud_zzjUojRD-1572" value=":Terraform" style="html=1;overflow=block;blockSpacing=1;whiteSpace=wrap;fontSize=13;fontColor=#333333;fontStyle=4;spacing=3.8;strokeOpacity=0;fillOpacity=100;rounded=1;absoluteArcSize=1;arcSize=7.5;fillColor=#a5ceff;strokeWidth=0.8;lucidId=sw2_3o3xYHzz;" vertex="1" parent="1">
          <mxGeometry x="2070" y="722" width="120" height="53" as="geometry" />
        </mxCell>
        <mxCell id="7ZaIqYHL2ud_zzjUojRD-1573" value="" style="html=1;jettySize=18;whiteSpace=wrap;fontSize=13;strokeColor=#333333;strokeOpacity=100;strokeWidth=0.8;rounded=1;arcSize=24;edgeStyle=orthogonalEdgeStyle;startArrow=block;startFill=1;endArrow=none;entryX=0;entryY=0.968;entryPerimeter=0;lucidId=sw2_Mmz3gJw0;" edge="1" parent="1" target="7ZaIqYHL2ud_zzjUojRD-1549">
          <mxGeometry width="100" height="100" relative="1" as="geometry">
            <Array as="points" />
            <mxPoint x="917" y="1376" as="sourcePoint" />
          </mxGeometry>
        </mxCell>
        <mxCell id="7ZaIqYHL2ud_zzjUojRD-1574" value="publish event registry created" style="text;html=1;resizable=0;labelBackgroundColor=default;align=center;verticalAlign=middle;fontColor=#333333;fontSize=13;" vertex="1" parent="7ZaIqYHL2ud_zzjUojRD-1573">
          <mxGeometry x="0.06939686319986782" relative="1" as="geometry">
            <mxPoint as="offset" />
          </mxGeometry>
        </mxCell>
        <mxCell id="7ZaIqYHL2ud_zzjUojRD-1575" value="" style="html=1;jettySize=18;whiteSpace=wrap;fontSize=13;strokeColor=#333333;strokeOpacity=100;strokeWidth=0.8;rounded=1;arcSize=24;edgeStyle=orthogonalEdgeStyle;startArrow=none;endArrow=block;endFill=1;exitX=1;exitY=0.106;exitPerimeter=0;lucidId=sw2_LCNSD-2I;" edge="1" parent="1" source="7ZaIqYHL2ud_zzjUojRD-1549">
          <mxGeometry width="100" height="100" relative="1" as="geometry">
            <Array as="points" />
            <mxPoint x="1320" y="875" as="targetPoint" />
          </mxGeometry>
        </mxCell>
        <mxCell id="7ZaIqYHL2ud_zzjUojRD-1576" value="getContainerRegistryType" style="text;html=1;resizable=0;labelBackgroundColor=default;align=center;verticalAlign=middle;fontColor=#333333;fontSize=13;" vertex="1" parent="7ZaIqYHL2ud_zzjUojRD-1575">
          <mxGeometry relative="1" as="geometry">
            <mxPoint as="offset" />
          </mxGeometry>
        </mxCell>
        <mxCell id="7ZaIqYHL2ud_zzjUojRD-1577" value=":AccountConfig&#xa;Service" style="html=1;overflow=block;blockSpacing=1;whiteSpace=wrap;fontSize=13;fontColor=#333333;fontStyle=4;spacing=3.8;strokeOpacity=0;fillOpacity=100;rounded=1;absoluteArcSize=1;arcSize=7.5;fillColor=#a5ceff;strokeWidth=0.8;lucidId=sw2_VU6IYaiv;" vertex="1" parent="1">
          <mxGeometry x="1259" y="722" width="120" height="53" as="geometry" />
        </mxCell>
        <mxCell id="7ZaIqYHL2ud_zzjUojRD-1578" value="" style="html=1;jettySize=18;whiteSpace=wrap;fontSize=13;strokeColor=#333333;strokeOpacity=100;dashed=1;fixDash=1;dashPattern=8 8;strokeWidth=0.8;rounded=1;arcSize=10;edgeStyle=orthogonalEdgeStyle;startArrow=none;endArrow=none;exitX=0.508;exitY=1;exitPerimeter=0;lucidId=sw2_Mv-TBkaI;" edge="1" parent="1" source="7ZaIqYHL2ud_zzjUojRD-1577">
          <mxGeometry width="100" height="100" relative="1" as="geometry">
            <Array as="points" />
            <mxPoint x="1320" y="1718" as="targetPoint" />
          </mxGeometry>
        </mxCell>
        <mxCell id="7ZaIqYHL2ud_zzjUojRD-1579" value="" style="html=1;jettySize=18;whiteSpace=wrap;fontSize=13;strokeColor=#333333;strokeOpacity=100;dashed=1;fixDash=1;strokeWidth=0.8;rounded=1;arcSize=24;edgeStyle=orthogonalEdgeStyle;startArrow=block;startFill=1;endArrow=none;exitX=1;exitY=0.15;exitPerimeter=0;lucidId=sw2_oyXus1mT;" edge="1" parent="1" source="7ZaIqYHL2ud_zzjUojRD-1549">
          <mxGeometry width="100" height="100" relative="1" as="geometry">
            <Array as="points" />
            <mxPoint x="1320" y="900" as="targetPoint" />
          </mxGeometry>
        </mxCell>
        <mxCell id="7ZaIqYHL2ud_zzjUojRD-1580" value="" style="html=1;overflow=block;blockSpacing=1;whiteSpace=wrap;fontSize=13;spacing=0;strokeOpacity=0;fillOpacity=100;rounded=1;absoluteArcSize=1;arcSize=7.5;fillColor=#d6d6d6;strokeWidth=0.8;lucidId=sw2_t4yAM3fl;" vertex="1" parent="1">
          <mxGeometry x="2115" y="1215" width="30" height="120" as="geometry" />
        </mxCell>
        <mxCell id="7ZaIqYHL2ud_zzjUojRD-1581" value="" style="html=1;jettySize=18;whiteSpace=wrap;fontSize=13;strokeColor=#333333;strokeOpacity=100;strokeWidth=0.8;rounded=1;arcSize=24;edgeStyle=orthogonalEdgeStyle;startArrow=none;endArrow=block;endFill=1;exitX=1;exitY=0.694;exitPerimeter=0;entryX=0.025;entryY=0.013;entryPerimeter=0;lucidId=sw2_4mX2tgp~;" edge="1" parent="1" source="7ZaIqYHL2ud_zzjUojRD-1549" target="7ZaIqYHL2ud_zzjUojRD-1580">
          <mxGeometry width="100" height="100" relative="1" as="geometry">
            <Array as="points" />
          </mxGeometry>
        </mxCell>
        <mxCell id="7ZaIqYHL2ud_zzjUojRD-1582" value="execute" style="text;html=1;resizable=0;labelBackgroundColor=default;align=center;verticalAlign=middle;fontColor=default;fontSize=13;" vertex="1" parent="7ZaIqYHL2ud_zzjUojRD-1581">
          <mxGeometry relative="1" as="geometry">
            <mxPoint as="offset" />
          </mxGeometry>
        </mxCell>
        <mxCell id="7ZaIqYHL2ud_zzjUojRD-1583" value=":S3" style="html=1;overflow=block;blockSpacing=1;whiteSpace=wrap;fontSize=13;fontColor=#333333;fontStyle=4;spacing=3.8;strokeOpacity=0;fillOpacity=100;rounded=1;absoluteArcSize=1;arcSize=7.5;fillColor=#a5ceff;strokeWidth=0.8;lucidId=vR2_aRCoct8q;" vertex="1" parent="1">
          <mxGeometry x="2265" y="720" width="120" height="53" as="geometry" />
        </mxCell>
        <mxCell id="7ZaIqYHL2ud_zzjUojRD-1584" value="" style="html=1;jettySize=18;whiteSpace=wrap;fontSize=13;strokeColor=#333333;strokeOpacity=100;dashed=1;fixDash=1;dashPattern=8 8;strokeWidth=0.8;rounded=1;arcSize=10;edgeStyle=orthogonalEdgeStyle;startArrow=none;endArrow=none;exitX=0.5;exitY=1;exitPerimeter=0;lucidId=~R2_EX9C0RFM;" edge="1" parent="1" source="7ZaIqYHL2ud_zzjUojRD-1583">
          <mxGeometry width="100" height="100" relative="1" as="geometry">
            <Array as="points">
              <mxPoint x="2325" y="1489" />
            </Array>
            <mxPoint x="2325" y="1700" as="targetPoint" />
          </mxGeometry>
        </mxCell>
        <mxCell id="7ZaIqYHL2ud_zzjUojRD-1585" value="" style="html=1;jettySize=18;whiteSpace=wrap;fontSize=13;strokeColor=#333333;strokeOpacity=100;strokeWidth=0.8;rounded=1;arcSize=24;edgeStyle=orthogonalEdgeStyle;startArrow=none;endArrow=block;endFill=1;exitX=1;exitY=0.195;exitPerimeter=0;lucidId=-72_mCqg5Oha;" edge="1" parent="1" source="7ZaIqYHL2ud_zzjUojRD-1580">
          <mxGeometry width="100" height="100" relative="1" as="geometry">
            <Array as="points" />
            <mxPoint x="2325" y="1238" as="targetPoint" />
          </mxGeometry>
        </mxCell>
        <mxCell id="7ZaIqYHL2ud_zzjUojRD-1586" value="load tfstate" style="text;html=1;resizable=0;labelBackgroundColor=default;align=center;verticalAlign=middle;fontColor=#333333;fontSize=13;" vertex="1" parent="7ZaIqYHL2ud_zzjUojRD-1585">
          <mxGeometry x="0.16914058214470984" relative="1" as="geometry">
            <mxPoint as="offset" />
          </mxGeometry>
        </mxCell>
        <mxCell id="7ZaIqYHL2ud_zzjUojRD-1587" value="" style="html=1;jettySize=18;whiteSpace=wrap;fontSize=13;strokeColor=#333333;strokeOpacity=100;dashed=1;fixDash=1;strokeWidth=0.8;rounded=1;arcSize=24;edgeStyle=orthogonalEdgeStyle;startArrow=block;startFill=1;endArrow=none;exitX=1;exitY=0.332;exitPerimeter=0;lucidId=h82_Z6v~x~XZ;" edge="1" parent="1" source="7ZaIqYHL2ud_zzjUojRD-1580">
          <mxGeometry width="100" height="100" relative="1" as="geometry">
            <Array as="points" />
            <mxPoint x="2325" y="1255" as="targetPoint" />
          </mxGeometry>
        </mxCell>
        <mxCell id="7ZaIqYHL2ud_zzjUojRD-1588" value=":AWS" style="points=[[0.518,0.499,0]];html=1;overflow=block;blockSpacing=1;whiteSpace=wrap;fontSize=13;fontColor=#333333;fontStyle=4;spacing=3.8;strokeOpacity=0;fillOpacity=100;rounded=1;absoluteArcSize=1;arcSize=7.5;fillColor=#a5ceff;strokeWidth=0.8;lucidId=ZG0uaCu.rSDm;" vertex="1" parent="1">
          <mxGeometry x="2475" y="720" width="120" height="53" as="geometry" />
        </mxCell>
        <mxCell id="7ZaIqYHL2ud_zzjUojRD-1589" value="" style="html=1;jettySize=18;whiteSpace=wrap;fontSize=13;strokeColor=#333333;strokeOpacity=100;dashed=1;fixDash=1;dashPattern=8 8;strokeWidth=0.8;rounded=1;arcSize=10;edgeStyle=orthogonalEdgeStyle;startArrow=none;endArrow=none;exitX=0.518;exitY=0.499;exitPerimeter=0;lucidId=lH0uLm-_F0av;" edge="1" parent="1" source="7ZaIqYHL2ud_zzjUojRD-1588">
          <mxGeometry width="100" height="100" relative="1" as="geometry">
            <Array as="points">
              <mxPoint x="2537" y="1680" />
              <mxPoint x="2535" y="1680" />
            </Array>
            <mxPoint x="2537" y="1680" as="targetPoint" />
          </mxGeometry>
        </mxCell>
        <mxCell id="7ZaIqYHL2ud_zzjUojRD-1590" value="" style="html=1;jettySize=18;whiteSpace=wrap;fontSize=13;strokeColor=#333333;strokeOpacity=100;strokeWidth=0.8;rounded=1;arcSize=24;edgeStyle=orthogonalEdgeStyle;startArrow=none;endArrow=block;endFill=1;exitX=1;exitY=0.569;exitPerimeter=0;lucidId=5H0u8TzYQcO_;" edge="1" parent="1" source="7ZaIqYHL2ud_zzjUojRD-1580">
          <mxGeometry width="100" height="100" relative="1" as="geometry">
            <Array as="points" />
            <mxPoint x="2540" y="1283" as="targetPoint" />
          </mxGeometry>
        </mxCell>
        <mxCell id="7ZaIqYHL2ud_zzjUojRD-1591" value="apply" style="text;html=1;resizable=0;labelBackgroundColor=default;align=center;verticalAlign=middle;fontColor=#333333;fontSize=13;" vertex="1" parent="7ZaIqYHL2ud_zzjUojRD-1590">
          <mxGeometry x="0.16914058214470984" relative="1" as="geometry">
            <mxPoint as="offset" />
          </mxGeometry>
        </mxCell>
        <mxCell id="7ZaIqYHL2ud_zzjUojRD-1592" value="" style="html=1;jettySize=18;whiteSpace=wrap;fontSize=13;strokeColor=#333333;strokeOpacity=100;strokeWidth=0.8;rounded=1;arcSize=24;edgeStyle=orthogonalEdgeStyle;startArrow=none;endArrow=block;endFill=1;exitX=1;exitY=0.762;exitPerimeter=0;lucidId=fJ0u5v0jwvbo;" edge="1" parent="1" source="7ZaIqYHL2ud_zzjUojRD-1580">
          <mxGeometry width="100" height="100" relative="1" as="geometry">
            <Array as="points" />
            <mxPoint x="2325" y="1306" as="targetPoint" />
          </mxGeometry>
        </mxCell>
        <mxCell id="7ZaIqYHL2ud_zzjUojRD-1593" value="save tfstate" style="text;html=1;resizable=0;labelBackgroundColor=default;align=center;verticalAlign=middle;fontColor=#333333;fontSize=13;" vertex="1" parent="7ZaIqYHL2ud_zzjUojRD-1592">
          <mxGeometry relative="1" as="geometry">
            <mxPoint as="offset" />
          </mxGeometry>
        </mxCell>
      </root>
    </mxGraphModel>
  </diagram>
</mxfile>
